<svg width="481" height="481" viewBox="0 0 481 481" fill="none" xmlns="http://www.w3.org/2000/svg">
<circle cx="240.5" cy="240.5" r="239.5" stroke="#20222E" stroke-width="2"/>
<ellipse cx="240" cy="240.5" rx="210" ry="210.5" fill="#20222E"/>
<path d="M458.5 240.5C458.5 286.537 443.926 331.392 416.866 368.637" stroke="#20222E" stroke-width="5"/>
<path d="M416.866 112.363C443.926 149.608 458.5 194.463 458.5 240.5" stroke="#393D4E" stroke-width="5"/>
<path d="M307.866 33.1697C329.622 40.2387 350.13 50.6882 368.637 64.1343" stroke="#20222E" stroke-width="5"/>
<path d="M368.637 64.1343C387.144 77.5805 403.42 93.8558 416.866 112.363" stroke="#F17043" stroke-width="5"/>
<path d="M173.134 33.1697C216.918 18.9435 264.082 18.9434 307.866 33.1696" stroke="#393D4E" stroke-width="5"/>
<path d="M64.1343 112.363C91.1942 75.1181 129.35 47.396 173.134 33.1698" stroke="#20222E" stroke-width="5"/>
<path d="M64.1343 368.637C37.0744 331.392 22.5 286.537 22.5 240.5" stroke="#20222E" stroke-width="5"/>
<path d="M173.134 447.83C129.351 433.604 91.1945 405.882 64.1346 368.638" stroke="#393D4E" stroke-width="5"/>
<path d="M307.866 447.83C264.082 462.057 216.918 462.057 173.135 447.83" stroke="#20222E" stroke-width="5"/>
<path d="M416.866 368.637C389.806 405.882 351.65 433.604 307.866 447.83" stroke="#393D4E" stroke-width="5"/>
<path d="M22.5 240.5C22.5 194.463 37.0744 149.608 64.1342 112.363" stroke="#666F8C" stroke-width="5"/>
<path d="M390 327H90" stroke="#2A2D3A"/>
<circle cx="195" cy="297" r="10" fill="#2A2D3A"/>
<path d="M390 149L90 149" stroke="#2A2D3A"/>
<circle cx="225" cy="296" r="10" fill="#2A2D3A"/>
<circle cx="255" cy="297" r="10" fill="#2A2D3A"/>
<circle cx="285" cy="297" r="10" fill="#2A2D3A"/>
<path d="M160.87 359L156.835 354.335V359H155.125V348.575H156.835V353.33L160.885 348.575H163.03L158.5 353.795L163.105 359H160.87ZM168.952 359.135C168.172 359.135 167.467 358.96 166.837 358.61C166.207 358.25 165.712 357.75 165.352 357.11C164.992 356.46 164.812 355.71 164.812 354.86C164.812 354.02 164.997 353.275 165.367 352.625C165.737 351.975 166.242 351.475 166.882 351.125C167.522 350.775 168.237 350.6 169.027 350.6C169.817 350.6 170.532 350.775 171.172 351.125C171.812 351.475 172.317 351.975 172.687 352.625C173.057 353.275 173.242 354.02 173.242 354.86C173.242 355.7 173.052 356.445 172.672 357.095C172.292 357.745 171.772 358.25 171.112 358.61C170.462 358.96 169.742 359.135 168.952 359.135ZM168.952 357.65C169.392 357.65 169.802 357.545 170.182 357.335C170.572 357.125 170.887 356.81 171.127 356.39C171.367 355.97 171.487 355.46 171.487 354.86C171.487 354.26 171.372 353.755 171.142 353.345C170.912 352.925 170.607 352.61 170.227 352.4C169.847 352.19 169.437 352.085 168.997 352.085C168.557 352.085 168.147 352.19 167.767 352.4C167.397 352.61 167.102 352.925 166.882 353.345C166.662 353.755 166.552 354.26 166.552 354.86C166.552 355.75 166.777 356.44 167.227 356.93C167.687 357.41 168.262 357.65 168.952 357.65ZM179.853 350.6C180.503 350.6 181.083 350.735 181.593 351.005C182.113 351.275 182.518 351.675 182.808 352.205C183.098 352.735 183.243 353.375 183.243 354.125V359H181.548V354.38C181.548 353.64 181.363 353.075 180.993 352.685C180.623 352.285 180.118 352.085 179.478 352.085C178.838 352.085 178.328 352.285 177.948 352.685C177.578 353.075 177.393 353.64 177.393 354.38V359H175.683V350.735H177.393V351.68C177.673 351.34 178.028 351.075 178.458 350.885C178.898 350.695 179.363 350.6 179.853 350.6ZM187.044 349.64C186.734 349.64 186.474 349.535 186.264 349.325C186.054 349.115 185.949 348.855 185.949 348.545C185.949 348.235 186.054 347.975 186.264 347.765C186.474 347.555 186.734 347.45 187.044 347.45C187.344 347.45 187.599 347.555 187.809 347.765C188.019 347.975 188.124 348.235 188.124 348.545C188.124 348.855 188.019 349.115 187.809 349.325C187.599 349.535 187.344 349.64 187.044 349.64ZM187.884 350.735V359H186.174V350.735H187.884ZM198.454 354.665C198.454 354.975 198.434 355.255 198.394 355.505H192.079C192.129 356.165 192.374 356.695 192.814 357.095C193.254 357.495 193.794 357.695 194.434 357.695C195.354 357.695 196.004 357.31 196.384 356.54H198.229C197.979 357.3 197.524 357.925 196.864 358.415C196.214 358.895 195.404 359.135 194.434 359.135C193.644 359.135 192.934 358.96 192.304 358.61C191.684 358.25 191.194 357.75 190.834 357.11C190.484 356.46 190.309 355.71 190.309 354.86C190.309 354.01 190.479 353.265 190.819 352.625C191.169 351.975 191.654 351.475 192.274 351.125C192.904 350.775 193.624 350.6 194.434 350.6C195.214 350.6 195.909 350.77 196.519 351.11C197.129 351.45 197.604 351.93 197.944 352.55C198.284 353.16 198.454 353.865 198.454 354.665ZM196.669 354.125C196.659 353.495 196.434 352.99 195.994 352.61C195.554 352.23 195.009 352.04 194.359 352.04C193.769 352.04 193.264 352.23 192.844 352.61C192.424 352.98 192.174 353.485 192.094 354.125H196.669ZM200.317 354.86C200.317 354.01 200.487 353.265 200.827 352.625C201.177 351.975 201.657 351.475 202.267 351.125C202.877 350.775 203.577 350.6 204.367 350.6C205.367 350.6 206.192 350.84 206.842 351.32C207.502 351.79 207.947 352.465 208.177 353.345H206.332C206.182 352.935 205.942 352.615 205.612 352.385C205.282 352.155 204.867 352.04 204.367 352.04C203.667 352.04 203.107 352.29 202.687 352.79C202.277 353.28 202.072 353.97 202.072 354.86C202.072 355.75 202.277 356.445 202.687 356.945C203.107 357.445 203.667 357.695 204.367 357.695C205.357 357.695 206.012 357.26 206.332 356.39H208.177C207.937 357.23 207.487 357.9 206.827 358.4C206.167 358.89 205.347 359.135 204.367 359.135C203.577 359.135 202.877 358.96 202.267 358.61C201.657 358.25 201.177 357.75 200.827 357.11C200.487 356.46 200.317 355.71 200.317 354.86ZM216.987 347.9V359H215.277V347.9H216.987ZM223.567 359.135C222.787 359.135 222.082 358.96 221.452 358.61C220.822 358.25 220.327 357.75 219.967 357.11C219.607 356.46 219.427 355.71 219.427 354.86C219.427 354.02 219.612 353.275 219.982 352.625C220.352 351.975 220.857 351.475 221.497 351.125C222.137 350.775 222.852 350.6 223.642 350.6C224.432 350.6 225.147 350.775 225.787 351.125C226.427 351.475 226.932 351.975 227.302 352.625C227.672 353.275 227.857 354.02 227.857 354.86C227.857 355.7 227.667 356.445 227.287 357.095C226.907 357.745 226.387 358.25 225.727 358.61C225.077 358.96 224.357 359.135 223.567 359.135ZM223.567 357.65C224.007 357.65 224.417 357.545 224.797 357.335C225.187 357.125 225.502 356.81 225.742 356.39C225.982 355.97 226.102 355.46 226.102 354.86C226.102 354.26 225.987 353.755 225.757 353.345C225.527 352.925 225.222 352.61 224.842 352.4C224.462 352.19 224.052 352.085 223.612 352.085C223.172 352.085 222.762 352.19 222.382 352.4C222.012 352.61 221.717 352.925 221.497 353.345C221.277 353.755 221.167 354.26 221.167 354.86C221.167 355.75 221.392 356.44 221.842 356.93C222.302 357.41 222.877 357.65 223.567 357.65ZM233.298 359.135C232.648 359.135 232.063 359.02 231.543 358.79C231.033 358.55 230.628 358.23 230.328 357.83C230.028 357.42 229.868 356.965 229.848 356.465H231.618C231.648 356.815 231.813 357.11 232.113 357.35C232.423 357.58 232.808 357.695 233.268 357.695C233.748 357.695 234.118 357.605 234.378 357.425C234.648 357.235 234.783 356.995 234.783 356.705C234.783 356.395 234.633 356.165 234.333 356.015C234.043 355.865 233.578 355.7 232.938 355.52C232.318 355.35 231.813 355.185 231.423 355.025C231.033 354.865 230.693 354.62 230.403 354.29C230.123 353.96 229.983 353.525 229.983 352.985C229.983 352.545 230.113 352.145 230.373 351.785C230.633 351.415 231.003 351.125 231.483 350.915C231.973 350.705 232.533 350.6 233.163 350.6C234.103 350.6 234.858 350.84 235.428 351.32C236.008 351.79 236.318 352.435 236.358 353.255H234.648C234.618 352.885 234.468 352.59 234.198 352.37C233.928 352.15 233.563 352.04 233.103 352.04C232.653 352.04 232.308 352.125 232.068 352.295C231.828 352.465 231.708 352.69 231.708 352.97C231.708 353.19 231.788 353.375 231.948 353.525C232.108 353.675 232.303 353.795 232.533 353.885C232.763 353.965 233.103 354.07 233.553 354.2C234.153 354.36 234.643 354.525 235.023 354.695C235.413 354.855 235.748 355.095 236.028 355.415C236.308 355.735 236.453 356.16 236.463 356.69C236.463 357.16 236.333 357.58 236.073 357.95C235.813 358.32 235.443 358.61 234.963 358.82C234.493 359.03 233.938 359.135 233.298 359.135ZM242.646 359.135C241.866 359.135 241.161 358.96 240.531 358.61C239.901 358.25 239.406 357.75 239.046 357.11C238.686 356.46 238.506 355.71 238.506 354.86C238.506 354.02 238.691 353.275 239.061 352.625C239.431 351.975 239.936 351.475 240.576 351.125C241.216 350.775 241.931 350.6 242.721 350.6C243.511 350.6 244.226 350.775 244.866 351.125C245.506 351.475 246.011 351.975 246.381 352.625C246.751 353.275 246.936 354.02 246.936 354.86C246.936 355.7 246.746 356.445 246.366 357.095C245.986 357.745 245.466 358.25 244.806 358.61C244.156 358.96 243.436 359.135 242.646 359.135ZM242.646 357.65C243.086 357.65 243.496 357.545 243.876 357.335C244.266 357.125 244.581 356.81 244.821 356.39C245.061 355.97 245.181 355.46 245.181 354.86C245.181 354.26 245.066 353.755 244.836 353.345C244.606 352.925 244.301 352.61 243.921 352.4C243.541 352.19 243.131 352.085 242.691 352.085C242.251 352.085 241.841 352.19 241.461 352.4C241.091 352.61 240.796 352.925 240.576 353.345C240.356 353.755 240.246 354.26 240.246 354.86C240.246 355.75 240.471 356.44 240.921 356.93C241.381 357.41 241.956 357.65 242.646 357.65ZM260.476 350.735L257.911 359H256.111L254.446 352.895L252.781 359H250.981L248.401 350.735H250.141L251.866 357.38L253.621 350.735H255.406L257.086 357.35L258.796 350.735H260.476ZM261.934 354.83C261.934 354 262.104 353.265 262.444 352.625C262.794 351.985 263.264 351.49 263.854 351.14C264.454 350.78 265.114 350.6 265.834 350.6C266.484 350.6 267.049 350.73 267.529 350.99C268.019 351.24 268.409 351.555 268.699 351.935V350.735H270.424V359H268.699V357.77C268.409 358.16 268.014 358.485 267.514 358.745C267.014 359.005 266.444 359.135 265.804 359.135C265.094 359.135 264.444 358.955 263.854 358.595C263.264 358.225 262.794 357.715 262.444 357.065C262.104 356.405 261.934 355.66 261.934 354.83ZM268.699 354.86C268.699 354.29 268.579 353.795 268.339 353.375C268.109 352.955 267.804 352.635 267.424 352.415C267.044 352.195 266.634 352.085 266.194 352.085C265.754 352.085 265.344 352.195 264.964 352.415C264.584 352.625 264.274 352.94 264.034 353.36C263.804 353.77 263.689 354.26 263.689 354.83C263.689 355.4 263.804 355.9 264.034 356.33C264.274 356.76 264.584 357.09 264.964 357.32C265.354 357.54 265.764 357.65 266.194 357.65C266.634 357.65 267.044 357.54 267.424 357.32C267.804 357.1 268.109 356.78 268.339 356.36C268.579 355.93 268.699 355.43 268.699 354.86ZM277.59 350.6C278.24 350.6 278.82 350.735 279.33 351.005C279.85 351.275 280.255 351.675 280.545 352.205C280.835 352.735 280.98 353.375 280.98 354.125V359H279.285V354.38C279.285 353.64 279.1 353.075 278.73 352.685C278.36 352.285 277.855 352.085 277.215 352.085C276.575 352.085 276.065 352.285 275.685 352.685C275.315 353.075 275.13 353.64 275.13 354.38V359H273.42V350.735H275.13V351.68C275.41 351.34 275.765 351.075 276.195 350.885C276.635 350.695 277.1 350.6 277.59 350.6ZM284.781 349.64C284.471 349.64 284.211 349.535 284.001 349.325C283.791 349.115 283.686 348.855 283.686 348.545C283.686 348.235 283.791 347.975 284.001 347.765C284.211 347.555 284.471 347.45 284.781 347.45C285.081 347.45 285.336 347.555 285.546 347.765C285.756 347.975 285.861 348.235 285.861 348.545C285.861 348.855 285.756 349.115 285.546 349.325C285.336 349.535 285.081 349.64 284.781 349.64ZM285.621 350.735V359H283.911V350.735H285.621ZM288.046 354.83C288.046 354 288.216 353.265 288.556 352.625C288.906 351.985 289.376 351.49 289.966 351.14C290.566 350.78 291.226 350.6 291.946 350.6C292.596 350.6 293.161 350.73 293.641 350.99C294.131 351.24 294.521 351.555 294.811 351.935V350.735H296.536V359H294.811V357.77C294.521 358.16 294.126 358.485 293.626 358.745C293.126 359.005 292.556 359.135 291.916 359.135C291.206 359.135 290.556 358.955 289.966 358.595C289.376 358.225 288.906 357.715 288.556 357.065C288.216 356.405 288.046 355.66 288.046 354.83ZM294.811 354.86C294.811 354.29 294.691 353.795 294.451 353.375C294.221 352.955 293.916 352.635 293.536 352.415C293.156 352.195 292.746 352.085 292.306 352.085C291.866 352.085 291.456 352.195 291.076 352.415C290.696 352.625 290.386 352.94 290.146 353.36C289.916 353.77 289.801 354.26 289.801 354.83C289.801 355.4 289.916 355.9 290.146 356.33C290.386 356.76 290.696 357.09 291.076 357.32C291.466 357.54 291.876 357.65 292.306 357.65C292.746 357.65 293.156 357.54 293.536 357.32C293.916 357.1 294.221 356.78 294.451 356.36C294.691 355.93 294.811 355.43 294.811 354.86ZM305.694 357.605H309.444V359H303.714V357.605L307.479 352.13H303.714V350.735H309.444V352.13L305.694 357.605ZM311.419 354.83C311.419 354 311.589 353.265 311.929 352.625C312.279 351.985 312.749 351.49 313.339 351.14C313.939 350.78 314.599 350.6 315.319 350.6C315.969 350.6 316.534 350.73 317.014 350.99C317.504 351.24 317.894 351.555 318.184 351.935V350.735H319.909V359H318.184V357.77C317.894 358.16 317.499 358.485 316.999 358.745C316.499 359.005 315.929 359.135 315.289 359.135C314.579 359.135 313.929 358.955 313.339 358.595C312.749 358.225 312.279 357.715 311.929 357.065C311.589 356.405 311.419 355.66 311.419 354.83ZM318.184 354.86C318.184 354.29 318.064 353.795 317.824 353.375C317.594 352.955 317.289 352.635 316.909 352.415C316.529 352.195 316.119 352.085 315.679 352.085C315.239 352.085 314.829 352.195 314.449 352.415C314.069 352.625 313.759 352.94 313.519 353.36C313.289 353.77 313.174 354.26 313.174 354.83C313.174 355.4 313.289 355.9 313.519 356.33C313.759 356.76 314.069 357.09 314.449 357.32C314.839 357.54 315.249 357.65 315.679 357.65C316.119 357.65 316.529 357.54 316.909 357.32C317.289 357.1 317.594 356.78 317.824 356.36C318.064 355.93 318.184 355.43 318.184 354.86ZM323.595 359.105C323.285 359.105 323.025 359 322.815 358.79C322.605 358.58 322.5 358.32 322.5 358.01C322.5 357.7 322.605 357.44 322.815 357.23C323.025 357.02 323.285 356.915 323.595 356.915C323.895 356.915 324.15 357.02 324.36 357.23C324.57 357.44 324.675 357.7 324.675 358.01C324.675 358.32 324.57 358.58 324.36 358.79C324.15 359 323.895 359.105 323.595 359.105ZM323.595 352.805C323.285 352.805 323.025 352.7 322.815 352.49C322.605 352.28 322.5 352.02 322.5 351.71C322.5 351.4 322.605 351.14 322.815 350.93C323.025 350.72 323.285 350.615 323.595 350.615C323.895 350.615 324.15 350.72 324.36 350.93C324.57 351.14 324.675 351.4 324.675 351.71C324.675 352.02 324.57 352.28 324.36 352.49C324.15 352.7 323.895 352.805 323.595 352.805Z" fill="#666F8C"/>
<path d="M172.469 384.48C172.344 383.959 172.118 383.568 171.789 383.307C171.46 383.046 171.001 382.916 170.412 382.916C169.517 382.916 168.848 383.262 168.406 383.953C167.964 384.633 167.732 385.766 167.709 387.353C168.004 386.854 168.434 386.469 169.001 386.197C169.568 385.925 170.18 385.789 170.837 385.789C171.585 385.789 172.242 385.953 172.809 386.282C173.387 386.599 173.835 387.064 174.152 387.676C174.481 388.288 174.645 389.019 174.645 389.869C174.645 390.662 174.486 391.371 174.169 391.994C173.863 392.617 173.404 393.11 172.792 393.473C172.18 393.824 171.443 394 170.582 394C169.415 394 168.497 393.745 167.828 393.235C167.171 392.714 166.706 391.983 166.434 391.042C166.173 390.101 166.043 388.928 166.043 387.523C166.043 383.375 167.505 381.301 170.429 381.301C171.562 381.301 172.452 381.607 173.098 382.219C173.755 382.831 174.141 383.585 174.254 384.48H172.469ZM170.412 387.421C169.721 387.421 169.131 387.631 168.644 388.05C168.168 388.458 167.93 389.053 167.93 389.835C167.93 390.617 168.151 391.24 168.593 391.705C169.046 392.158 169.675 392.385 170.48 392.385C171.194 392.385 171.755 392.164 172.163 391.722C172.582 391.28 172.792 390.691 172.792 389.954C172.792 389.183 172.588 388.571 172.18 388.118C171.783 387.653 171.194 387.421 170.412 387.421ZM186.942 382.185C188.2 382.185 189.3 382.429 190.24 382.916C191.192 383.392 191.923 384.083 192.433 384.99C192.955 385.885 193.215 386.934 193.215 388.135C193.215 389.336 192.955 390.379 192.433 391.263C191.923 392.147 191.192 392.827 190.24 393.303C189.3 393.768 188.2 394 186.942 394H183.083V382.185H186.942ZM186.942 392.419C188.325 392.419 189.385 392.045 190.121 391.297C190.858 390.549 191.226 389.495 191.226 388.135C191.226 386.764 190.858 385.693 190.121 384.922C189.385 384.151 188.325 383.766 186.942 383.766H185.021V392.419H186.942ZM198.111 391.671L196.054 396.363H194.796L196.003 391.671H198.111ZM206.736 391.365C207.824 390.424 208.68 389.654 209.303 389.053C209.938 388.441 210.465 387.806 210.884 387.149C211.304 386.492 211.513 385.834 211.513 385.177C211.513 384.497 211.349 383.964 211.02 383.579C210.703 383.194 210.199 383.001 209.507 383.001C208.839 383.001 208.317 383.216 207.943 383.647C207.581 384.066 207.388 384.633 207.365 385.347H205.495C205.529 384.055 205.915 383.069 206.651 382.389C207.399 381.698 208.346 381.352 209.49 381.352C210.726 381.352 211.689 381.692 212.38 382.372C213.083 383.052 213.434 383.959 213.434 385.092C213.434 385.908 213.225 386.696 212.805 387.455C212.397 388.203 211.904 388.877 211.326 389.478C210.76 390.067 210.034 390.753 209.15 391.535L208.385 392.215H213.774V393.83H205.512V392.419L206.736 391.365ZM216.293 384.667C216.361 383.613 216.763 382.791 217.5 382.202C218.248 381.613 219.2 381.318 220.356 381.318C221.149 381.318 221.835 381.46 222.413 381.743C222.991 382.026 223.427 382.412 223.722 382.899C224.016 383.386 224.164 383.936 224.164 384.548C224.164 385.251 223.977 385.851 223.603 386.35C223.229 386.849 222.781 387.183 222.26 387.353V387.421C222.928 387.625 223.45 387.999 223.824 388.543C224.198 389.076 224.385 389.761 224.385 390.6C224.385 391.269 224.232 391.864 223.926 392.385C223.62 392.906 223.166 393.32 222.566 393.626C221.965 393.921 221.245 394.068 220.407 394.068C219.183 394.068 218.174 393.756 217.381 393.133C216.599 392.498 216.179 391.592 216.123 390.413H217.993C218.038 391.014 218.27 391.507 218.69 391.892C219.109 392.266 219.676 392.453 220.39 392.453C221.081 392.453 221.614 392.266 221.988 391.892C222.362 391.507 222.549 391.014 222.549 390.413C222.549 389.62 222.294 389.059 221.784 388.73C221.285 388.39 220.514 388.22 219.472 388.22H219.03V386.622H219.489C220.407 386.611 221.104 386.458 221.58 386.163C222.067 385.868 222.311 385.404 222.311 384.769C222.311 384.225 222.135 383.794 221.784 383.477C221.432 383.148 220.934 382.984 220.288 382.984C219.653 382.984 219.16 383.148 218.809 383.477C218.457 383.794 218.248 384.191 218.18 384.667H216.293ZM242.227 382.185V394H240.289V388.832H234.73V394H232.792V382.185H234.73V387.251H240.289V382.185H242.227ZM247.753 391.671L245.696 396.363H244.438L245.645 391.671H247.753ZM263.297 383.273H257.602V386.656C257.84 386.339 258.192 386.072 258.656 385.857C259.132 385.642 259.637 385.534 260.169 385.534C261.121 385.534 261.892 385.738 262.481 386.146C263.082 386.554 263.507 387.07 263.756 387.693C264.017 388.316 264.147 388.974 264.147 389.665C264.147 390.504 263.983 391.252 263.654 391.909C263.337 392.555 262.855 393.065 262.209 393.439C261.575 393.813 260.793 394 259.863 394C258.628 394 257.636 393.694 256.888 393.082C256.14 392.47 255.693 391.66 255.545 390.651H257.432C257.557 391.184 257.835 391.609 258.265 391.926C258.696 392.232 259.234 392.385 259.88 392.385C260.685 392.385 261.286 392.141 261.682 391.654C262.09 391.167 262.294 390.521 262.294 389.716C262.294 388.9 262.09 388.277 261.682 387.846C261.274 387.404 260.674 387.183 259.88 387.183C259.325 387.183 258.855 387.325 258.469 387.608C258.095 387.88 257.823 388.254 257.653 388.73H255.817V381.573H263.297V383.273ZM267.015 387.642C267.015 385.681 267.343 384.151 268.001 383.052C268.669 381.941 269.814 381.386 271.435 381.386C273.055 381.386 274.194 381.941 274.852 383.052C275.52 384.151 275.855 385.681 275.855 387.642C275.855 389.625 275.52 391.178 274.852 392.3C274.194 393.411 273.055 393.966 271.435 393.966C269.814 393.966 268.669 393.411 268.001 392.3C267.343 391.178 267.015 389.625 267.015 387.642ZM273.951 387.642C273.951 386.724 273.888 385.948 273.764 385.313C273.65 384.678 273.412 384.163 273.05 383.766C272.687 383.358 272.149 383.154 271.435 383.154C270.721 383.154 270.182 383.358 269.82 383.766C269.457 384.163 269.213 384.678 269.089 385.313C268.975 385.948 268.919 386.724 268.919 387.642C268.919 388.594 268.975 389.393 269.089 390.039C269.202 390.685 269.44 391.206 269.803 391.603C270.177 392 270.721 392.198 271.435 392.198C272.149 392.198 272.687 392 273.05 391.603C273.424 391.206 273.667 390.685 273.781 390.039C273.894 389.393 273.951 388.594 273.951 387.642ZM296.72 382.185V394H294.782V385.908L291.178 394H289.835L286.214 385.908V394H284.276V382.185H286.367L290.515 391.45L294.646 382.185H296.72ZM301.104 383.392C300.752 383.392 300.458 383.273 300.22 383.035C299.982 382.797 299.863 382.502 299.863 382.151C299.863 381.8 299.982 381.505 300.22 381.267C300.458 381.029 300.752 380.91 301.104 380.91C301.444 380.91 301.733 381.029 301.971 381.267C302.209 381.505 302.328 381.8 302.328 382.151C302.328 382.502 302.209 382.797 301.971 383.035C301.733 383.273 301.444 383.392 301.104 383.392ZM302.056 384.633V394H300.118V384.633H302.056ZM310.176 384.48C310.913 384.48 311.57 384.633 312.148 384.939C312.737 385.245 313.196 385.698 313.525 386.299C313.854 386.9 314.018 387.625 314.018 388.475V394H312.097V388.764C312.097 387.925 311.887 387.285 311.468 386.843C311.049 386.39 310.476 386.163 309.751 386.163C309.026 386.163 308.448 386.39 308.017 386.843C307.598 387.285 307.388 387.925 307.388 388.764V394H305.45V384.633H307.388V385.704C307.705 385.319 308.108 385.018 308.595 384.803C309.094 384.588 309.621 384.48 310.176 384.48Z" fill="white"/>
<path d="M190.295 123.6C190.945 123.6 191.525 123.735 192.035 124.005C192.555 124.275 192.96 124.675 193.25 125.205C193.54 125.735 193.685 126.375 193.685 127.125V132H191.99V127.38C191.99 126.64 191.805 126.075 191.435 125.685C191.065 125.285 190.56 125.085 189.92 125.085C189.28 125.085 188.77 125.285 188.39 125.685C188.02 126.075 187.835 126.64 187.835 127.38V132H186.125V123.735H187.835V124.68C188.115 124.34 188.47 124.075 188.9 123.885C189.34 123.695 189.805 123.6 190.295 123.6ZM196.046 127.83C196.046 127 196.216 126.265 196.556 125.625C196.906 124.985 197.376 124.49 197.966 124.14C198.566 123.78 199.226 123.6 199.946 123.6C200.596 123.6 201.161 123.73 201.641 123.99C202.131 124.24 202.521 124.555 202.811 124.935V123.735H204.536V132H202.811V130.77C202.521 131.16 202.126 131.485 201.626 131.745C201.126 132.005 200.556 132.135 199.916 132.135C199.206 132.135 198.556 131.955 197.966 131.595C197.376 131.225 196.906 130.715 196.556 130.065C196.216 129.405 196.046 128.66 196.046 127.83ZM202.811 127.86C202.811 127.29 202.691 126.795 202.451 126.375C202.221 125.955 201.916 125.635 201.536 125.415C201.156 125.195 200.746 125.085 200.306 125.085C199.866 125.085 199.456 125.195 199.076 125.415C198.696 125.625 198.386 125.94 198.146 126.36C197.916 126.77 197.801 127.26 197.801 127.83C197.801 128.4 197.916 128.9 198.146 129.33C198.386 129.76 198.696 130.09 199.076 130.32C199.466 130.54 199.876 130.65 200.306 130.65C200.746 130.65 201.156 130.54 201.536 130.32C201.916 130.1 202.221 129.78 202.451 129.36C202.691 128.93 202.811 128.43 202.811 127.86ZM223.279 123.735L220.714 132H218.914L217.249 125.895L215.584 132H213.784L211.204 123.735H212.944L214.669 130.38L216.424 123.735H218.209L219.889 130.35L221.599 123.735H223.279ZM232.747 123.735L227.677 135.885H225.907L227.587 131.865L224.332 123.735H226.237L228.562 130.035L230.977 123.735H232.747ZM238.117 123.6C238.757 123.6 239.322 123.73 239.812 123.99C240.312 124.24 240.702 124.555 240.982 124.935V123.735H242.707V132.135C242.707 132.895 242.547 133.57 242.227 134.16C241.907 134.76 241.442 135.23 240.832 135.57C240.232 135.91 239.512 136.08 238.672 136.08C237.552 136.08 236.622 135.815 235.882 135.285C235.142 134.765 234.722 134.055 234.622 133.155H236.317C236.447 133.585 236.722 133.93 237.142 134.19C237.572 134.46 238.082 134.595 238.672 134.595C239.362 134.595 239.917 134.385 240.337 133.965C240.767 133.545 240.982 132.935 240.982 132.135V130.755C240.692 131.145 240.297 131.475 239.797 131.745C239.307 132.005 238.747 132.135 238.117 132.135C237.397 132.135 236.737 131.955 236.137 131.595C235.547 131.225 235.077 130.715 234.727 130.065C234.387 129.405 234.217 128.66 234.217 127.83C234.217 127 234.387 126.265 234.727 125.625C235.077 124.985 235.547 124.49 236.137 124.14C236.737 123.78 237.397 123.6 238.117 123.6ZM240.982 127.86C240.982 127.29 240.862 126.795 240.622 126.375C240.392 125.955 240.087 125.635 239.707 125.415C239.327 125.195 238.917 125.085 238.477 125.085C238.037 125.085 237.627 125.195 237.247 125.415C236.867 125.625 236.557 125.94 236.317 126.36C236.087 126.77 235.972 127.26 235.972 127.83C235.972 128.4 236.087 128.9 236.317 129.33C236.557 129.76 236.867 130.09 237.247 130.32C237.637 130.54 238.047 130.65 238.477 130.65C238.917 130.65 239.327 130.54 239.707 130.32C240.087 130.1 240.392 129.78 240.622 129.36C240.862 128.93 240.982 128.43 240.982 127.86ZM247.413 124.935C247.663 124.515 247.993 124.19 248.403 123.96C248.823 123.72 249.318 123.6 249.888 123.6V125.37H249.453C248.783 125.37 248.273 125.54 247.923 125.88C247.583 126.22 247.413 126.81 247.413 127.65V132H245.703V123.735H247.413V124.935ZM251.64 127.83C251.64 127 251.81 126.265 252.15 125.625C252.5 124.985 252.97 124.49 253.56 124.14C254.16 123.78 254.82 123.6 255.54 123.6C256.19 123.6 256.755 123.73 257.235 123.99C257.725 124.24 258.115 124.555 258.405 124.935V123.735H260.13V132H258.405V130.77C258.115 131.16 257.72 131.485 257.22 131.745C256.72 132.005 256.15 132.135 255.51 132.135C254.8 132.135 254.15 131.955 253.56 131.595C252.97 131.225 252.5 130.715 252.15 130.065C251.81 129.405 251.64 128.66 251.64 127.83ZM258.405 127.86C258.405 127.29 258.285 126.795 258.045 126.375C257.815 125.955 257.51 125.635 257.13 125.415C256.75 125.195 256.34 125.085 255.9 125.085C255.46 125.085 255.05 125.195 254.67 125.415C254.29 125.625 253.98 125.94 253.74 126.36C253.51 126.77 253.395 127.26 253.395 127.83C253.395 128.4 253.51 128.9 253.74 129.33C253.98 129.76 254.29 130.09 254.67 130.32C255.06 130.54 255.47 130.65 255.9 130.65C256.34 130.65 256.75 130.54 257.13 130.32C257.51 130.1 257.815 129.78 258.045 129.36C258.285 128.93 258.405 128.43 258.405 127.86ZM267.296 123.6C267.946 123.6 268.526 123.735 269.036 124.005C269.556 124.275 269.961 124.675 270.251 125.205C270.541 125.735 270.686 126.375 270.686 127.125V132H268.991V127.38C268.991 126.64 268.806 126.075 268.436 125.685C268.066 125.285 267.561 125.085 266.921 125.085C266.281 125.085 265.771 125.285 265.391 125.685C265.021 126.075 264.836 126.64 264.836 127.38V132H263.126V123.735H264.836V124.68C265.116 124.34 265.471 124.075 265.901 123.885C266.341 123.695 266.806 123.6 267.296 123.6ZM274.487 122.64C274.177 122.64 273.917 122.535 273.707 122.325C273.497 122.115 273.392 121.855 273.392 121.545C273.392 121.235 273.497 120.975 273.707 120.765C273.917 120.555 274.177 120.45 274.487 120.45C274.787 120.45 275.042 120.555 275.252 120.765C275.462 120.975 275.567 121.235 275.567 121.545C275.567 121.855 275.462 122.115 275.252 122.325C275.042 122.535 274.787 122.64 274.487 122.64ZM275.327 123.735V132H273.617V123.735H275.327ZM285.897 127.665C285.897 127.975 285.877 128.255 285.837 128.505H279.522C279.572 129.165 279.817 129.695 280.257 130.095C280.697 130.495 281.237 130.695 281.877 130.695C282.797 130.695 283.447 130.31 283.827 129.54H285.672C285.422 130.3 284.967 130.925 284.307 131.415C283.657 131.895 282.847 132.135 281.877 132.135C281.087 132.135 280.377 131.96 279.747 131.61C279.127 131.25 278.637 130.75 278.277 130.11C277.927 129.46 277.752 128.71 277.752 127.86C277.752 127.01 277.922 126.265 278.262 125.625C278.612 124.975 279.097 124.475 279.717 124.125C280.347 123.775 281.067 123.6 281.877 123.6C282.657 123.6 283.352 123.77 283.962 124.11C284.572 124.45 285.047 124.93 285.387 125.55C285.727 126.16 285.897 126.865 285.897 127.665ZM284.112 127.125C284.102 126.495 283.877 125.99 283.437 125.61C282.997 125.23 282.452 125.04 281.802 125.04C281.212 125.04 280.707 125.23 280.287 125.61C279.867 125.98 279.617 126.485 279.537 127.125H284.112ZM290.475 121.575L290.28 128.85H288.855L288.66 121.575H290.475ZM289.62 132.105C289.31 132.105 289.05 132 288.84 131.79C288.63 131.58 288.525 131.32 288.525 131.01C288.525 130.7 288.63 130.44 288.84 130.23C289.05 130.02 289.31 129.915 289.62 129.915C289.92 129.915 290.175 130.02 290.385 130.23C290.595 130.44 290.7 130.7 290.7 131.01C290.7 131.32 290.595 131.58 290.385 131.79C290.175 132 289.92 132.105 289.62 132.105Z" fill="#666F8C"/>
<path d="M181.116 186L177.081 181.335V186H175.371V175.575H177.081V180.33L181.131 175.575H183.276L178.746 180.795L183.351 186H181.116ZM193.098 177.735V186H191.388V185.025C191.118 185.365 190.763 185.635 190.323 185.835C189.893 186.025 189.433 186.12 188.943 186.12C188.293 186.12 187.708 185.985 187.188 185.715C186.678 185.445 186.273 185.045 185.973 184.515C185.683 183.985 185.538 183.345 185.538 182.595V177.735H187.233V182.34C187.233 183.08 187.418 183.65 187.788 184.05C188.158 184.44 188.663 184.635 189.303 184.635C189.943 184.635 190.448 184.44 190.818 184.05C191.198 183.65 191.388 183.08 191.388 182.34V177.735H193.098ZM197.814 178.965C198.104 178.565 198.499 178.24 198.999 177.99C199.509 177.73 200.074 177.6 200.694 177.6C201.424 177.6 202.084 177.775 202.674 178.125C203.264 178.475 203.729 178.975 204.069 179.625C204.409 180.265 204.579 181 204.579 181.83C204.579 182.66 204.409 183.405 204.069 184.065C203.729 184.715 203.259 185.225 202.659 185.595C202.069 185.955 201.414 186.135 200.694 186.135C200.054 186.135 199.484 186.01 198.984 185.76C198.494 185.51 198.104 185.19 197.814 184.8V186H196.104V174.9H197.814V178.965ZM202.839 181.83C202.839 181.26 202.719 180.77 202.479 180.36C202.249 179.94 201.939 179.625 201.549 179.415C201.169 179.195 200.759 179.085 200.319 179.085C199.889 179.085 199.479 179.195 199.089 179.415C198.709 179.635 198.399 179.955 198.159 180.375C197.929 180.795 197.814 181.29 197.814 181.86C197.814 182.43 197.929 182.93 198.159 183.36C198.399 183.78 198.709 184.1 199.089 184.32C199.479 184.54 199.889 184.65 200.319 184.65C200.759 184.65 201.169 184.54 201.549 184.32C201.939 184.09 202.249 183.76 202.479 183.33C202.719 182.9 202.839 182.4 202.839 181.83ZM214.506 177.735V186H212.796V185.025C212.526 185.365 212.171 185.635 211.731 185.835C211.301 186.025 210.841 186.12 210.351 186.12C209.701 186.12 209.116 185.985 208.596 185.715C208.086 185.445 207.681 185.045 207.381 184.515C207.091 183.985 206.946 183.345 206.946 182.595V177.735H208.641V182.34C208.641 183.08 208.826 183.65 209.196 184.05C209.566 184.44 210.071 184.635 210.711 184.635C211.351 184.635 211.856 184.44 212.226 184.05C212.606 183.65 212.796 183.08 212.796 182.34V177.735H214.506ZM220.512 186.135C219.862 186.135 219.277 186.02 218.757 185.79C218.247 185.55 217.842 185.23 217.542 184.83C217.242 184.42 217.082 183.965 217.062 183.465H218.832C218.862 183.815 219.027 184.11 219.327 184.35C219.637 184.58 220.022 184.695 220.482 184.695C220.962 184.695 221.332 184.605 221.592 184.425C221.862 184.235 221.997 183.995 221.997 183.705C221.997 183.395 221.847 183.165 221.547 183.015C221.257 182.865 220.792 182.7 220.152 182.52C219.532 182.35 219.027 182.185 218.637 182.025C218.247 181.865 217.907 181.62 217.617 181.29C217.337 180.96 217.197 180.525 217.197 179.985C217.197 179.545 217.327 179.145 217.587 178.785C217.847 178.415 218.217 178.125 218.697 177.915C219.187 177.705 219.747 177.6 220.377 177.6C221.317 177.6 222.072 177.84 222.642 178.32C223.222 178.79 223.532 179.435 223.572 180.255H221.862C221.832 179.885 221.682 179.59 221.412 179.37C221.142 179.15 220.777 179.04 220.317 179.04C219.867 179.04 219.522 179.125 219.282 179.295C219.042 179.465 218.922 179.69 218.922 179.97C218.922 180.19 219.002 180.375 219.162 180.525C219.322 180.675 219.517 180.795 219.747 180.885C219.977 180.965 220.317 181.07 220.767 181.2C221.367 181.36 221.857 181.525 222.237 181.695C222.627 181.855 222.962 182.095 223.242 182.415C223.522 182.735 223.667 183.16 223.677 183.69C223.677 184.16 223.547 184.58 223.287 184.95C223.027 185.32 222.657 185.61 222.177 185.82C221.707 186.03 221.152 186.135 220.512 186.135ZM221.922 175.38L218.607 177.015V175.755L221.922 173.925V175.38ZM238.211 178.68C238.211 179.21 238.086 179.71 237.836 180.18C237.586 180.65 237.186 181.035 236.636 181.335C236.086 181.625 235.381 181.77 234.521 181.77H232.631V186H230.921V175.575H234.521C235.321 175.575 235.996 175.715 236.546 175.995C237.106 176.265 237.521 176.635 237.791 177.105C238.071 177.575 238.211 178.1 238.211 178.68ZM234.521 180.375C235.171 180.375 235.656 180.23 235.976 179.94C236.296 179.64 236.456 179.22 236.456 178.68C236.456 177.54 235.811 176.97 234.521 176.97H232.631V180.375H234.521ZM248.077 177.735V186H246.367V185.025C246.097 185.365 245.742 185.635 245.302 185.835C244.872 186.025 244.412 186.12 243.922 186.12C243.272 186.12 242.687 185.985 242.167 185.715C241.657 185.445 241.252 185.045 240.952 184.515C240.662 183.985 240.517 183.345 240.517 182.595V177.735H242.212V182.34C242.212 183.08 242.397 183.65 242.767 184.05C243.137 184.44 243.642 184.635 244.282 184.635C244.922 184.635 245.427 184.44 245.797 184.05C246.177 183.65 246.367 183.08 246.367 182.34V177.735H248.077ZM250.513 181.86C250.513 181.01 250.683 180.265 251.023 179.625C251.373 178.975 251.853 178.475 252.463 178.125C253.073 177.775 253.773 177.6 254.563 177.6C255.563 177.6 256.388 177.84 257.038 178.32C257.698 178.79 258.143 179.465 258.373 180.345H256.528C256.378 179.935 256.138 179.615 255.808 179.385C255.478 179.155 255.063 179.04 254.563 179.04C253.863 179.04 253.303 179.29 252.883 179.79C252.473 180.28 252.268 180.97 252.268 181.86C252.268 182.75 252.473 183.445 252.883 183.945C253.303 184.445 253.863 184.695 254.563 184.695C255.553 184.695 256.208 184.26 256.528 183.39H258.373C258.133 184.23 257.683 184.9 257.023 185.4C256.363 185.89 255.543 186.135 254.563 186.135C253.773 186.135 253.073 185.96 252.463 185.61C251.853 185.25 251.373 184.75 251.023 184.11C250.683 183.46 250.513 182.71 250.513 181.86ZM265.102 177.6C265.732 177.6 266.292 177.735 266.782 178.005C267.282 178.275 267.672 178.675 267.952 179.205C268.242 179.735 268.387 180.375 268.387 181.125V186H266.692V181.38C266.692 180.64 266.507 180.075 266.137 179.685C265.767 179.285 265.262 179.085 264.622 179.085C263.982 179.085 263.472 179.285 263.092 179.685C262.722 180.075 262.537 180.64 262.537 181.38V186H260.827V174.9H262.537V178.695C262.827 178.345 263.192 178.075 263.632 177.885C264.082 177.695 264.572 177.6 265.102 177.6ZM270.748 181.83C270.748 181 270.918 180.265 271.258 179.625C271.608 178.985 272.078 178.49 272.668 178.14C273.268 177.78 273.928 177.6 274.648 177.6C275.298 177.6 275.863 177.73 276.343 177.99C276.833 178.24 277.223 178.555 277.513 178.935V177.735H279.238V186H277.513V184.77C277.223 185.16 276.828 185.485 276.328 185.745C275.828 186.005 275.258 186.135 274.618 186.135C273.908 186.135 273.258 185.955 272.668 185.595C272.078 185.225 271.608 184.715 271.258 184.065C270.918 183.405 270.748 182.66 270.748 181.83ZM277.513 181.86C277.513 181.29 277.393 180.795 277.153 180.375C276.923 179.955 276.618 179.635 276.238 179.415C275.858 179.195 275.448 179.085 275.008 179.085C274.568 179.085 274.158 179.195 273.778 179.415C273.398 179.625 273.088 179.94 272.848 180.36C272.618 180.77 272.503 181.26 272.503 181.83C272.503 182.4 272.618 182.9 272.848 183.33C273.088 183.76 273.398 184.09 273.778 184.32C274.168 184.54 274.578 184.65 275.008 184.65C275.448 184.65 275.858 184.54 276.238 184.32C276.618 184.1 276.923 183.78 277.153 183.36C277.393 182.93 277.513 182.43 277.513 181.86ZM284.229 179.13V183.705C284.229 184.015 284.299 184.24 284.439 184.38C284.589 184.51 284.839 184.575 285.189 184.575H286.239V186H284.889C284.119 186 283.529 185.82 283.119 185.46C282.709 185.1 282.504 184.515 282.504 183.705V179.13H281.529V177.735H282.504V175.68H284.229V177.735H286.239V179.13H284.229ZM296.14 181.665C296.14 181.975 296.12 182.255 296.08 182.505H289.765C289.815 183.165 290.06 183.695 290.5 184.095C290.94 184.495 291.48 184.695 292.12 184.695C293.04 184.695 293.69 184.31 294.07 183.54H295.915C295.665 184.3 295.21 184.925 294.55 185.415C293.9 185.895 293.09 186.135 292.12 186.135C291.33 186.135 290.62 185.96 289.99 185.61C289.37 185.25 288.88 184.75 288.52 184.11C288.17 183.46 287.995 182.71 287.995 181.86C287.995 181.01 288.165 180.265 288.505 179.625C288.855 178.975 289.34 178.475 289.96 178.125C290.59 177.775 291.31 177.6 292.12 177.6C292.9 177.6 293.595 177.77 294.205 178.11C294.815 178.45 295.29 178.93 295.63 179.55C295.97 180.16 296.14 180.865 296.14 181.665ZM294.355 181.125C294.345 180.495 294.12 179.99 293.68 179.61C293.24 179.23 292.695 179.04 292.045 179.04C291.455 179.04 290.95 179.23 290.53 179.61C290.11 179.98 289.86 180.485 289.78 181.125H294.355ZM301.843 181.875L305.653 186H303.343L300.283 182.445V186H298.573V174.9H300.283V181.35L303.283 177.735H305.653L301.843 181.875Z" fill="#666F8C"/>
<path d="M176.582 87.185V99H174.644V90.908L171.04 99H169.697L166.076 90.908V99H164.138V87.185H166.229L170.377 96.45L174.508 87.185H176.582ZM179.333 94.274C179.333 93.3333 179.525 92.5003 179.911 91.775C180.307 91.0497 180.84 90.4887 181.509 90.092C182.189 89.684 182.937 89.48 183.753 89.48C184.489 89.48 185.13 89.6273 185.674 89.922C186.229 90.2053 186.671 90.5623 187 90.993V89.633H188.955V99H187V97.606C186.671 98.048 186.223 98.4163 185.657 98.711C185.09 99.0057 184.444 99.153 183.719 99.153C182.914 99.153 182.177 98.949 181.509 98.541C180.84 98.1217 180.307 97.5437 179.911 96.807C179.525 96.059 179.333 95.2147 179.333 94.274ZM187 94.308C187 93.662 186.864 93.101 186.592 92.625C186.331 92.149 185.985 91.7863 185.555 91.537C185.124 91.2877 184.659 91.163 184.161 91.163C183.662 91.163 183.197 91.2877 182.767 91.537C182.336 91.775 181.985 92.132 181.713 92.608C181.452 93.0727 181.322 93.628 181.322 94.274C181.322 94.92 181.452 95.4867 181.713 95.974C181.985 96.4613 182.336 96.8353 182.767 97.096C183.209 97.3453 183.673 97.47 184.161 97.47C184.659 97.47 185.124 97.3453 185.555 97.096C185.985 96.8467 186.331 96.484 186.592 96.008C186.864 95.5207 187 94.954 187 94.308ZM195.75 99.153C195.014 99.153 194.351 99.0227 193.761 98.762C193.183 98.49 192.724 98.1273 192.384 97.674C192.044 97.2093 191.863 96.6937 191.84 96.127H193.846C193.88 96.5237 194.067 96.858 194.407 97.13C194.759 97.3907 195.195 97.521 195.716 97.521C196.26 97.521 196.68 97.419 196.974 97.215C197.28 96.9997 197.433 96.7277 197.433 96.399C197.433 96.0477 197.263 95.787 196.923 95.617C196.595 95.447 196.068 95.26 195.342 95.056C194.64 94.8633 194.067 94.6763 193.625 94.495C193.183 94.3137 192.798 94.036 192.469 93.662C192.152 93.288 191.993 92.795 191.993 92.183C191.993 91.6843 192.141 91.231 192.435 90.823C192.73 90.4037 193.149 90.075 193.693 89.837C194.249 89.599 194.883 89.48 195.597 89.48C196.663 89.48 197.518 89.752 198.164 90.296C198.822 90.8287 199.173 91.5597 199.218 92.489H197.28C197.246 92.0697 197.076 91.7353 196.77 91.486C196.464 91.2367 196.051 91.112 195.529 91.112C195.019 91.112 194.628 91.2083 194.356 91.401C194.084 91.5937 193.948 91.8487 193.948 92.166C193.948 92.4153 194.039 92.625 194.22 92.795C194.402 92.965 194.623 93.101 194.883 93.203C195.144 93.2937 195.529 93.4127 196.039 93.56C196.719 93.7413 197.275 93.9283 197.705 94.121C198.147 94.3023 198.527 94.5743 198.844 94.937C199.162 95.2997 199.326 95.7813 199.337 96.382C199.337 96.9147 199.19 97.3907 198.895 97.81C198.601 98.2293 198.181 98.558 197.637 98.796C197.105 99.034 196.476 99.153 195.75 99.153ZM203.998 97.419H208.248V99H201.754V97.419L206.021 91.214H201.754V89.633H208.248V91.214L203.998 97.419ZM269.687 99.153C268.95 99.153 268.287 99.0227 267.698 98.762C267.12 98.49 266.661 98.1273 266.321 97.674C265.981 97.2093 265.8 96.6937 265.777 96.127H267.783C267.817 96.5237 268.004 96.858 268.344 97.13C268.695 97.3907 269.132 97.521 269.653 97.521C270.197 97.521 270.616 97.419 270.911 97.215C271.217 96.9997 271.37 96.7277 271.37 96.399C271.37 96.0477 271.2 95.787 270.86 95.617C270.531 95.447 270.004 95.26 269.279 95.056C268.576 94.8633 268.004 94.6763 267.562 94.495C267.12 94.3137 266.735 94.036 266.406 93.662C266.089 93.288 265.93 92.795 265.93 92.183C265.93 91.6843 266.077 91.231 266.372 90.823C266.667 90.4037 267.086 90.075 267.63 89.837C268.185 89.599 268.82 89.48 269.534 89.48C270.599 89.48 271.455 89.752 272.101 90.296C272.758 90.8287 273.11 91.5597 273.155 92.489H271.217C271.183 92.0697 271.013 91.7353 270.707 91.486C270.401 91.2367 269.987 91.112 269.466 91.112C268.956 91.112 268.565 91.2083 268.293 91.401C268.021 91.5937 267.885 91.8487 267.885 92.166C267.885 92.4153 267.976 92.625 268.157 92.795C268.338 92.965 268.559 93.101 268.82 93.203C269.081 93.2937 269.466 93.4127 269.976 93.56C270.656 93.7413 271.211 93.9283 271.642 94.121C272.084 94.3023 272.464 94.5743 272.781 94.937C273.098 95.2997 273.263 95.7813 273.274 96.382C273.274 96.9147 273.127 97.3907 272.832 97.81C272.537 98.2293 272.118 98.558 271.574 98.796C271.041 99.034 270.412 99.153 269.687 99.153ZM277.935 97.419H282.185V99H275.691V97.419L279.958 91.214H275.691V89.633H282.185V91.214L277.935 97.419ZM284.424 94.274C284.424 93.3333 284.617 92.5003 285.002 91.775C285.399 91.0497 285.931 90.4887 286.6 90.092C287.28 89.684 288.028 89.48 288.844 89.48C289.581 89.48 290.221 89.6273 290.765 89.922C291.32 90.2053 291.762 90.5623 292.091 90.993V89.633H294.046V99H292.091V97.606C291.762 98.048 291.315 98.4163 290.748 98.711C290.181 99.0057 289.535 99.153 288.81 99.153C288.005 99.153 287.269 98.949 286.6 98.541C285.931 98.1217 285.399 97.5437 285.002 96.807C284.617 96.059 284.424 95.2147 284.424 94.274ZM292.091 94.308C292.091 93.662 291.955 93.101 291.683 92.625C291.422 92.149 291.077 91.7863 290.646 91.537C290.215 91.2877 289.751 91.163 289.252 91.163C288.753 91.163 288.289 91.2877 287.858 91.537C287.427 91.775 287.076 92.132 286.804 92.608C286.543 93.0727 286.413 93.628 286.413 94.274C286.413 94.92 286.543 95.4867 286.804 95.974C287.076 96.4613 287.427 96.8353 287.858 97.096C288.3 97.3453 288.765 97.47 289.252 97.47C289.751 97.47 290.215 97.3453 290.646 97.096C291.077 96.8467 291.422 96.484 291.683 96.008C291.955 95.5207 292.091 94.954 292.091 94.308ZM302.167 89.48C302.904 89.48 303.561 89.633 304.139 89.939C304.729 90.245 305.188 90.6983 305.516 91.299C305.845 91.8997 306.009 92.625 306.009 93.475V99H304.088V93.764C304.088 92.9253 303.879 92.285 303.459 91.843C303.04 91.3897 302.468 91.163 301.742 91.163C301.017 91.163 300.439 91.3897 300.008 91.843C299.589 92.285 299.379 92.9253 299.379 93.764V99H297.441V89.633H299.379V90.704C299.697 90.3187 300.099 90.0183 300.586 89.803C301.085 89.5877 301.612 89.48 302.167 89.48ZM312.731 99.153C311.995 99.153 311.332 99.0227 310.742 98.762C310.164 98.49 309.705 98.1273 309.365 97.674C309.025 97.2093 308.844 96.6937 308.821 96.127H310.827C310.861 96.5237 311.048 96.858 311.388 97.13C311.74 97.3907 312.176 97.521 312.697 97.521C313.241 97.521 313.661 97.419 313.955 97.215C314.261 96.9997 314.414 96.7277 314.414 96.399C314.414 96.0477 314.244 95.787 313.904 95.617C313.576 95.447 313.049 95.26 312.323 95.056C311.621 94.8633 311.048 94.6763 310.606 94.495C310.164 94.3137 309.779 94.036 309.45 93.662C309.133 93.288 308.974 92.795 308.974 92.183C308.974 91.6843 309.122 91.231 309.416 90.823C309.711 90.4037 310.13 90.075 310.674 89.837C311.23 89.599 311.864 89.48 312.578 89.48C313.644 89.48 314.499 89.752 315.145 90.296C315.803 90.8287 316.154 91.5597 316.199 92.489H314.261C314.227 92.0697 314.057 91.7353 313.751 91.486C313.445 91.2367 313.032 91.112 312.51 91.112C312 91.112 311.609 91.2083 311.337 91.401C311.065 91.5937 310.929 91.8487 310.929 92.166C310.929 92.4153 311.02 92.625 311.201 92.795C311.383 92.965 311.604 93.101 311.864 93.203C312.125 93.2937 312.51 93.4127 313.02 93.56C313.7 93.7413 314.256 93.9283 314.686 94.121C315.128 94.3023 315.508 94.5743 315.825 94.937C316.143 95.2997 316.307 95.7813 316.318 96.382C316.318 96.9147 316.171 97.3907 315.876 97.81C315.582 98.2293 315.162 98.558 314.618 98.796C314.086 99.034 313.457 99.153 312.731 99.153Z" fill="white"/>
<path d="M215.889 88.375V86.607H219.425V99H217.47V88.375H215.889ZM222.938 92.642C222.938 90.6813 223.266 89.1513 223.924 88.052C224.592 86.9413 225.737 86.386 227.358 86.386C228.978 86.386 230.117 86.9413 230.775 88.052C231.443 89.1513 231.778 90.6813 231.778 92.642C231.778 94.6253 231.443 96.178 230.775 97.3C230.117 98.4107 228.978 98.966 227.358 98.966C225.737 98.966 224.592 98.4107 223.924 97.3C223.266 96.178 222.938 94.6253 222.938 92.642ZM229.874 92.642C229.874 91.724 229.811 90.9477 229.687 90.313C229.573 89.6783 229.335 89.1627 228.973 88.766C228.61 88.358 228.072 88.154 227.358 88.154C226.644 88.154 226.105 88.358 225.743 88.766C225.38 89.1627 225.136 89.6783 225.012 90.313C224.898 90.9477 224.842 91.724 224.842 92.642C224.842 93.594 224.898 94.393 225.012 95.039C225.125 95.685 225.363 96.2063 225.726 96.603C226.1 96.9997 226.644 97.198 227.358 97.198C228.072 97.198 228.61 96.9997 228.973 96.603C229.347 96.2063 229.59 95.685 229.704 95.039C229.817 94.393 229.874 93.594 229.874 92.642ZM234.678 92.642C234.678 90.6813 235.007 89.1513 235.664 88.052C236.333 86.9413 237.478 86.386 239.098 86.386C240.719 86.386 241.858 86.9413 242.515 88.052C243.184 89.1513 243.518 90.6813 243.518 92.642C243.518 94.6253 243.184 96.178 242.515 97.3C241.858 98.4107 240.719 98.966 239.098 98.966C237.478 98.966 236.333 98.4107 235.664 97.3C235.007 96.178 234.678 94.6253 234.678 92.642ZM241.614 92.642C241.614 91.724 241.552 90.9477 241.427 90.313C241.314 89.6783 241.076 89.1627 240.713 88.766C240.351 88.358 239.812 88.154 239.098 88.154C238.384 88.154 237.846 88.358 237.483 88.766C237.121 89.1627 236.877 89.6783 236.752 90.313C236.639 90.9477 236.582 91.724 236.582 92.642C236.582 93.594 236.639 94.393 236.752 95.039C236.866 95.685 237.104 96.2063 237.466 96.603C237.84 96.9997 238.384 97.198 239.098 97.198C239.812 97.198 240.351 96.9997 240.713 96.603C241.087 96.2063 241.331 95.685 241.444 95.039C241.558 94.393 241.614 93.594 241.614 92.642ZM246.113 89.599C246.113 88.7717 246.351 88.1257 246.827 87.661C247.314 87.185 247.938 86.947 248.697 86.947C249.456 86.947 250.074 87.185 250.55 87.661C251.037 88.1257 251.281 88.7717 251.281 89.599C251.281 90.4263 251.037 91.078 250.55 91.554C250.074 92.03 249.456 92.268 248.697 92.268C247.938 92.268 247.314 92.03 246.827 91.554C246.351 91.078 246.113 90.4263 246.113 89.599ZM256.483 87.168L249.7 99H247.796L254.579 87.168H256.483ZM248.697 88.12C247.983 88.12 247.626 88.613 247.626 89.599C247.626 90.5963 247.983 91.095 248.697 91.095C249.037 91.095 249.298 90.976 249.479 90.738C249.672 90.4887 249.768 90.109 249.768 89.599C249.768 88.613 249.411 88.12 248.697 88.12ZM253.032 96.552C253.032 95.7247 253.27 95.0787 253.746 94.614C254.233 94.138 254.857 93.9 255.616 93.9C256.364 93.9 256.976 94.138 257.452 94.614C257.939 95.0787 258.183 95.7247 258.183 96.552C258.183 97.3793 257.939 98.031 257.452 98.507C256.976 98.983 256.364 99.221 255.616 99.221C254.857 99.221 254.233 98.983 253.746 98.507C253.27 98.031 253.032 97.3793 253.032 96.552ZM255.599 95.073C254.885 95.073 254.528 95.566 254.528 96.552C254.528 97.538 254.885 98.031 255.599 98.031C256.313 98.031 256.67 97.538 256.67 96.552C256.67 95.566 256.313 95.073 255.599 95.073Z" fill="#F17043"/>
<path d="M160 186L164 180.995L160 176" stroke="#666F8C" stroke-width="1.5" stroke-miterlimit="10" stroke-linejoin="round"/>
<path d="M320 186L316 180.995L320 176" stroke="#666F8C" stroke-width="1.5" stroke-miterlimit="10" stroke-linejoin="round"/>
<path d="M165.076 247.11C165.076 248.943 164.618 250.667 163.701 252.28C162.821 253.893 161.501 255.25 159.741 256.35C158.018 257.45 155.965 258.11 153.581 258.33V262.785H150.006V258.33C146.56 258 143.773 256.918 141.646 255.085C139.52 253.252 138.456 250.832 138.456 247.825H145.166C145.276 249.255 145.735 250.447 146.541 251.4C147.348 252.317 148.503 252.903 150.006 253.16V241.06C147.55 240.437 145.551 239.813 144.011 239.19C142.471 238.53 141.151 237.503 140.051 236.11C138.988 234.717 138.456 232.81 138.456 230.39C138.456 227.347 139.52 224.835 141.646 222.855C143.773 220.838 146.56 219.665 150.006 219.335V214.88H153.581V219.335C156.808 219.628 159.393 220.655 161.336 222.415C163.316 224.138 164.435 226.522 164.691 229.565H157.981C157.871 228.428 157.431 227.42 156.661 226.54C155.891 225.623 154.865 225 153.581 224.67V236.55C156.038 237.137 158.036 237.76 159.576 238.42C161.116 239.043 162.418 240.052 163.481 241.445C164.545 242.802 165.076 244.69 165.076 247.11ZM144.836 230.06C144.836 231.563 145.276 232.737 146.156 233.58C147.073 234.423 148.356 235.102 150.006 235.615V224.505C148.43 224.688 147.165 225.257 146.211 226.21C145.295 227.163 144.836 228.447 144.836 230.06ZM153.581 253.16C155.195 252.903 156.46 252.262 157.376 251.235C158.293 250.172 158.751 248.907 158.751 247.44C158.751 245.973 158.293 244.837 157.376 244.03C156.496 243.187 155.231 242.508 153.581 241.995V253.16Z" fill="#666F8C"/>
<path d="M176.153 223.625V217.905H187.593V258H181.268V223.625H176.153ZM198.956 237.43C198.956 231.087 200.02 226.137 202.146 222.58C204.31 218.987 208.013 217.19 213.256 217.19C218.5 217.19 222.185 218.987 224.311 222.58C226.475 226.137 227.556 231.087 227.556 237.43C227.556 243.847 226.475 248.87 224.311 252.5C222.185 256.093 218.5 257.89 213.256 257.89C208.013 257.89 204.31 256.093 202.146 252.5C200.02 248.87 198.956 243.847 198.956 237.43ZM221.396 237.43C221.396 234.46 221.195 231.948 220.791 229.895C220.425 227.842 219.655 226.173 218.481 224.89C217.308 223.57 215.566 222.91 213.256 222.91C210.946 222.91 209.205 223.57 208.031 224.89C206.858 226.173 206.07 227.842 205.666 229.895C205.3 231.948 205.116 234.46 205.116 237.43C205.116 240.51 205.3 243.095 205.666 245.185C206.033 247.275 206.803 248.962 207.976 250.245C209.186 251.528 210.946 252.17 213.256 252.17C215.566 252.17 217.308 251.528 218.481 250.245C219.691 248.962 220.48 247.275 220.846 245.185C221.213 243.095 221.396 240.51 221.396 237.43ZM236.941 237.43C236.941 231.087 238.004 226.137 240.131 222.58C242.294 218.987 245.997 217.19 251.241 217.19C256.484 217.19 260.169 218.987 262.296 222.58C264.459 226.137 265.541 231.087 265.541 237.43C265.541 243.847 264.459 248.87 262.296 252.5C260.169 256.093 256.484 257.89 251.241 257.89C245.997 257.89 242.294 256.093 240.131 252.5C238.004 248.87 236.941 243.847 236.941 237.43ZM259.381 237.43C259.381 234.46 259.179 231.948 258.776 229.895C258.409 227.842 257.639 226.173 256.466 224.89C255.292 223.57 253.551 222.91 251.241 222.91C248.931 222.91 247.189 223.57 246.016 224.89C244.842 226.173 244.054 227.842 243.651 229.895C243.284 231.948 243.101 234.46 243.101 237.43C243.101 240.51 243.284 243.095 243.651 245.185C244.017 247.275 244.787 248.962 245.961 250.245C247.171 251.528 248.931 252.17 251.241 252.17C253.551 252.17 255.292 251.528 256.466 250.245C257.676 248.962 258.464 247.275 258.831 245.185C259.197 243.095 259.381 240.51 259.381 237.43ZM274.925 237.43C274.925 231.087 275.988 226.137 278.115 222.58C280.278 218.987 283.982 217.19 289.225 217.19C294.468 217.19 298.153 218.987 300.28 222.58C302.443 226.137 303.525 231.087 303.525 237.43C303.525 243.847 302.443 248.87 300.28 252.5C298.153 256.093 294.468 257.89 289.225 257.89C283.982 257.89 280.278 256.093 278.115 252.5C275.988 248.87 274.925 243.847 274.925 237.43ZM297.365 237.43C297.365 234.46 297.163 231.948 296.76 229.895C296.393 227.842 295.623 226.173 294.45 224.89C293.277 223.57 291.535 222.91 289.225 222.91C286.915 222.91 285.173 223.57 284 224.89C282.827 226.173 282.038 227.842 281.635 229.895C281.268 231.948 281.085 234.46 281.085 237.43C281.085 240.51 281.268 243.095 281.635 245.185C282.002 247.275 282.772 248.962 283.945 250.245C285.155 251.528 286.915 252.17 289.225 252.17C291.535 252.17 293.277 251.528 294.45 250.245C295.66 248.962 296.448 247.275 296.815 245.185C297.182 243.095 297.365 240.51 297.365 237.43ZM312.909 237.43C312.909 231.087 313.973 226.137 316.099 222.58C318.263 218.987 321.966 217.19 327.209 217.19C332.453 217.19 336.138 218.987 338.264 222.58C340.428 226.137 341.509 231.087 341.509 237.43C341.509 243.847 340.428 248.87 338.264 252.5C336.138 256.093 332.453 257.89 327.209 257.89C321.966 257.89 318.263 256.093 316.099 252.5C313.973 248.87 312.909 243.847 312.909 237.43ZM335.349 237.43C335.349 234.46 335.148 231.948 334.744 229.895C334.378 227.842 333.608 226.173 332.434 224.89C331.261 223.57 329.519 222.91 327.209 222.91C324.899 222.91 323.158 223.57 321.984 224.89C320.811 226.173 320.023 227.842 319.619 229.895C319.253 231.948 319.069 234.46 319.069 237.43C319.069 240.51 319.253 243.095 319.619 245.185C319.986 247.275 320.756 248.962 321.929 250.245C323.139 251.528 324.899 252.17 327.209 252.17C329.519 252.17 331.261 251.528 332.434 250.245C333.644 248.962 334.433 247.275 334.799 245.185C335.166 243.095 335.349 240.51 335.349 237.43Z" fill="white"/>
</svg>
